<svg width="495" height="96" viewBox="0 0 495 96" fill="none" xmlns="http://www.w3.org/2000/svg">
<g clip-path="url(#clip0_3_8)">
<path fill-rule="evenodd" clip-rule="evenodd" d="M33.5713 0.190735L0 18.9785V56.8224L0.0001151 87.6877L13.4287 95.7399V64.6598L33.5713 76.4154L65.7999 56.8224V18.9785L33.5713 0.190735ZM12.8914 26.5994L33.1713 15.2209L52.6399 26.5994V49.519L33.1713 61.3851L12.8914 49.519V26.5994Z" fill="white"/>
<path d="M105.361 71.5502V30.9116H129.412C132.355 30.9116 134.969 31.5115 137.254 32.7113C139.578 33.9111 141.418 35.556 142.773 37.646C144.129 39.736 144.806 42.1356 144.806 44.8448C144.806 47.7476 144.09 50.3407 142.657 52.6242C141.263 54.9077 139.326 56.7074 136.848 58.0234C134.369 59.3006 131.58 59.9392 128.482 59.9392H117.909V71.5502H105.361ZM117.677 49.257H125.81C126.933 49.257 127.921 49.1022 128.773 48.7926C129.663 48.483 130.36 48.0185 130.864 47.3993C131.406 46.7413 131.677 45.9672 131.677 45.0771C131.677 44.2643 131.406 43.6063 130.864 43.1032C130.36 42.6 129.663 42.2323 128.773 42.0001C127.921 41.7292 126.933 41.5937 125.81 41.5937H117.677V49.257ZM159.88 71.5502V30.9116H182.478C186.158 30.9116 189.198 31.4341 191.599 32.4791C194.039 33.5241 195.878 35.0335 197.118 37.0074C198.357 38.9813 198.977 41.3809 198.977 44.2062C198.977 46.9542 198.28 49.3925 196.885 51.5212C195.53 53.6112 193.671 55.2561 191.308 56.4559C188.946 57.6557 186.235 58.2556 183.175 58.2556H171.615V71.5502H159.88ZM187.068 71.5502L173.939 53.2048L186.951 51.7534L201.242 71.5502H187.068ZM171.615 49.5473H181.549C182.478 49.5473 183.311 49.3925 184.047 49.0829C184.783 48.7345 185.383 48.2314 185.848 47.5734C186.312 46.9155 186.545 46.0833 186.545 45.0771C186.545 44.1095 186.312 43.316 185.848 42.6968C185.383 42.0388 184.763 41.555 183.989 41.2454C183.214 40.9358 182.323 40.781 181.316 40.781H171.615V49.5473ZM238.259 72.1308C234.464 72.1308 230.997 71.6083 227.86 70.5633C224.723 69.4796 222.012 67.9895 219.727 66.093C217.442 64.1966 215.68 61.9711 214.441 59.4167C213.202 56.8235 212.582 53.9982 212.582 50.9406C212.582 47.8831 213.202 45.0771 214.441 42.5226C215.719 39.9295 217.5 37.6847 219.785 35.7882C222.07 33.8918 224.762 32.421 227.86 31.376C230.997 30.2923 234.444 29.7505 238.201 29.7505C241.958 29.7505 245.385 30.2923 248.483 31.376C251.62 32.421 254.331 33.9111 256.616 35.8463C258.901 37.7427 260.664 39.9875 261.903 42.5807C263.181 45.1351 263.82 47.9024 263.82 50.8826C263.82 53.9401 263.181 56.7655 261.903 59.3586C260.664 61.913 258.901 64.1578 256.616 66.093C254.331 67.9895 251.62 69.4796 248.483 70.5633C245.385 71.6083 241.977 72.1308 238.259 72.1308ZM238.201 60.5197C240.06 60.5197 241.783 60.2875 243.371 59.8231C244.959 59.3199 246.315 58.6426 247.438 57.7911C248.561 56.901 249.432 55.8753 250.052 54.7142C250.71 53.5531 251.039 52.2952 251.039 50.9406C251.039 49.586 250.71 48.3281 250.052 47.167C249.432 46.0059 248.561 44.9996 247.438 44.1482C246.315 43.258 244.959 42.5807 243.371 42.1162C241.783 41.6131 240.06 41.3615 238.201 41.3615C236.342 41.3615 234.619 41.6131 233.031 42.1162C231.481 42.5807 230.126 43.258 228.964 44.1482C227.802 44.9996 226.912 46.0059 226.292 47.167C225.672 48.3281 225.362 49.586 225.362 50.9406C225.362 52.2952 225.672 53.5531 226.292 54.7142C226.912 55.8753 227.802 56.901 228.964 57.7911C230.126 58.6426 231.481 59.3199 233.031 59.8231C234.619 60.2875 236.342 60.5197 238.201 60.5197ZM278.392 71.5502V30.9116H289.197L306.974 54.0756H298.841L316.675 30.9116H327.364V71.5502H315.281V61.3906C315.281 58.1395 315.359 55.1012 315.514 52.2759C315.707 49.4505 316.017 46.5865 316.443 43.6837L317.721 47.5154L304.766 63.0161H300.932L287.861 47.3412L289.314 43.6837C289.778 46.5478 290.088 49.3925 290.243 52.2178C290.398 55.0045 290.475 58.0621 290.475 61.3906V71.5502H278.392ZM344.484 71.5502V30.9116H368.534C371.478 30.9116 374.092 31.5115 376.377 32.7113C378.7 33.9111 380.54 35.556 381.896 37.646C383.251 39.736 383.929 42.1356 383.929 44.8448C383.929 47.7476 383.212 50.3407 381.779 52.6242C380.385 54.9077 378.449 56.7074 375.97 58.0234C373.491 59.3006 370.703 59.9392 367.605 59.9392H357.032V71.5502H344.484ZM356.799 49.257H364.932C366.056 49.257 367.043 49.1022 367.895 48.7926C368.786 48.483 369.483 48.0185 369.987 47.3993C370.529 46.7413 370.8 45.9672 370.8 45.0771C370.8 44.2643 370.529 43.6063 369.987 43.1032C369.483 42.6 368.786 42.2323 367.895 42.0001C367.043 41.7292 366.056 41.5937 364.932 41.5937H356.799V49.257ZM411.028 71.5502V41.5937H395.227V30.9116H439.726V41.5937H423.576V71.5502H411.028Z" fill="white"/>
</g>
<defs>
<clipPath id="clip0_3_8">
<rect width="495" height="95.5491" fill="white" transform="translate(0 0.190735)"/>
</clipPath>
</defs>
</svg>
